<svg width="72" height="76" viewBox="0 0 72 76" fill="none" xmlns="http://www.w3.org/2000/svg">
<g filter="url(#filter0_d_54_97)">
<rect x="16" y="20" width="40" height="40" rx="16" fill="white" shape-rendering="crispEdges"/>
<path d="M29.3333 51.8668C24.9573 51.3148 23.3333 48.9668 23.3333 43.6695V35.6668C23.3333 30.3695 24.9573 28.0215 29.3333 27.4695V51.8668Z" fill="#3A52EE"/>
<path fill-rule="evenodd" clip-rule="evenodd" d="M48 43.6668C48 49.8188 45.8187 52.0002 39.6667 52.0002H31.6667C31.5507 52.0002 31.4467 52.0002 31.3333 51.9922V27.3415C31.3897 27.3415 31.4437 27.3395 31.498 27.3375C31.553 27.3355 31.6083 27.3335 31.6667 27.3335H39.6667C45.8187 27.3335 48 29.5148 48 35.6668V43.6668ZM37.6667 39.6668L40.3733 36.9615C40.5556 36.773 40.6552 36.5204 40.653 36.2582C40.6509 35.996 40.5458 35.7452 40.3605 35.5597C40.1752 35.3742 39.9244 35.2689 39.6622 35.2665C39.4 35.2641 39.1474 35.3648 38.9587 35.5468L35.5453 38.9602C35.4524 39.0529 35.3788 39.1631 35.3285 39.2843C35.2782 39.4056 35.2523 39.5356 35.2523 39.6668C35.2523 39.7981 35.2782 39.9281 35.3285 40.0493C35.3788 40.1706 35.4524 40.2807 35.5453 40.3735L38.9587 43.7868C39.051 43.8823 39.1613 43.9584 39.2834 44.0108C39.4054 44.0631 39.5366 44.0906 39.6694 44.0917C39.8022 44.0928 39.9339 44.0675 40.0567 44.0171C40.1796 43.9668 40.2912 43.8925 40.3851 43.7985C40.4789 43.7046 40.5531 43.5929 40.6033 43.47C40.6536 43.3471 40.6788 43.2154 40.6776 43.0826C40.6764 42.9498 40.6487 42.8186 40.5962 42.6967C40.5438 42.5747 40.4676 42.4644 40.372 42.3722L37.6667 39.6668Z" fill="#3A52EE"/>
</g>
<defs>
<filter id="filter0_d_54_97" x="-14" y="0" width="100" height="100" filterUnits="userSpaceOnUse" color-interpolation-filters="sRGB">
<feFlood flood-opacity="0" result="BackgroundImageFix"/>
<feColorMatrix in="SourceAlpha" type="matrix" values="0 0 0 0 0 0 0 0 0 0 0 0 0 0 0 0 0 0 127 0" result="hardAlpha"/>
<feOffset dy="10"/>
<feGaussianBlur stdDeviation="15"/>
<feComposite in2="hardAlpha" operator="out"/>
<feColorMatrix type="matrix" values="0 0 0 0 0.878412 0 0 0 0 0.890701 0 0 0 0 0.915278 0 0 0 0.65 0"/>
<feBlend mode="normal" in2="BackgroundImageFix" result="effect1_dropShadow_54_97"/>
<feBlend mode="normal" in="SourceGraphic" in2="effect1_dropShadow_54_97" result="shape"/>
</filter>
</defs>
</svg>
