<svg width="22" height="22" viewBox="0 0 22 22" fill="none" xmlns="http://www.w3.org/2000/svg">
<path d="M14.25 0H8.25C7.95 0 7.656 0.01 7.371 0.024C7.33134 0.012936 7.29088 0.00491267 7.25 0C7.16049 0.00155808 7.07203 0.019522 6.989 0.053C2.463 0.405 0.5 2.761 0.5 7.75V13.75C0.5 18.739 2.463 21.095 6.989 21.45C7.07222 21.4825 7.16068 21.4994 7.25 21.5C7.29088 21.4951 7.33134 21.4871 7.371 21.476C7.656 21.49 7.946 21.5 8.25 21.5H14.25C19.682 21.5 22 19.183 22 13.75V7.75C22 2.317 19.682 0 14.25 0ZM6.5 19.9C3.218 19.486 2 17.725 2 13.752V7.75C2 3.777 3.218 2.016 6.5 1.602V19.9ZM20.5 13.75C20.5 18.364 18.864 20 14.25 20H8.25C8.163 20 8.085 20 8 19.994V1.506C8.085 1.506 8.163 1.5 8.25 1.5H14.25C18.864 1.5 20.5 3.136 20.5 7.75V13.75ZM14.78 8.721L12.75 10.75L14.779 12.779C14.8507 12.8482 14.9078 12.9309 14.9472 13.0224C14.9865 13.1139 15.0073 13.2123 15.0082 13.3118C15.0091 13.4114 14.9902 13.5102 14.9525 13.6024C14.9148 13.6946 14.8592 13.7783 14.7888 13.8488C14.7184 13.9192 14.6347 13.975 14.5425 14.0127C14.4504 14.0505 14.3516 14.0695 14.2521 14.0687C14.1525 14.0679 14.054 14.0472 13.9625 14.008C13.871 13.9687 13.7882 13.9116 13.719 13.84L11.159 11.28C11.0893 11.2104 11.0341 11.1278 10.9964 11.0369C10.9587 10.9459 10.9392 10.8484 10.9392 10.75C10.9392 10.6516 10.9587 10.5541 10.9964 10.4631C11.0341 10.3722 11.0893 10.2896 11.159 10.22L13.719 7.66C13.8605 7.52345 14.05 7.44794 14.2467 7.44974C14.4433 7.45154 14.6314 7.53051 14.7704 7.66963C14.9094 7.80875 14.9881 7.9969 14.9898 8.19355C14.9914 8.3902 14.9167 8.57961 14.78 8.721Z" fill="#3A52EE"/>
</svg>
