<svg width="92" height="50" viewBox="0 0 92 50" fill="none" xmlns="http://www.w3.org/2000/svg">
<path d="M2.59441 25.5V7.62H5.85841V16.932L4.97041 16.62L12.5784 7.62H16.6824L9.55441 16.068L9.74641 13.764L16.8984 25.5H13.0584L8.25841 17.628L5.85841 20.484V25.5H2.59441ZM19.0995 25.5V12.444H22.0515V15.012L21.8115 14.556C22.1155 13.772 22.6115 13.18 23.2995 12.78C24.0035 12.364 24.8195 12.156 25.7475 12.156C26.7075 12.156 27.5555 12.364 28.2915 12.78C29.0435 13.196 29.6275 13.78 30.0435 14.532C30.4595 15.268 30.6675 16.124 30.6675 17.1V25.5H27.5235V17.844C27.5235 17.268 27.4115 16.772 27.1875 16.356C26.9635 15.94 26.6515 15.62 26.2515 15.396C25.8675 15.156 25.4115 15.036 24.8835 15.036C24.3715 15.036 23.9155 15.156 23.5155 15.396C23.1155 15.62 22.8035 15.94 22.5795 16.356C22.3555 16.772 22.2435 17.268 22.2435 17.844V25.5H19.0995ZM40.19 25.788C38.91 25.788 37.742 25.492 36.686 24.9C35.646 24.308 34.814 23.5 34.19 22.476C33.582 21.452 33.278 20.284 33.278 18.972C33.278 17.66 33.582 16.492 34.19 15.468C34.814 14.444 35.646 13.636 36.686 13.044C37.726 12.452 38.894 12.156 40.19 12.156C41.47 12.156 42.63 12.452 43.67 13.044C44.71 13.636 45.534 14.444 46.142 15.468C46.766 16.476 47.078 17.644 47.078 18.972C47.078 20.284 46.766 21.452 46.142 22.476C45.518 23.5 44.686 24.308 43.646 24.9C42.606 25.492 41.454 25.788 40.19 25.788ZM40.19 22.908C40.894 22.908 41.51 22.74 42.038 22.404C42.582 22.068 43.006 21.604 43.31 21.012C43.63 20.404 43.79 19.724 43.79 18.972C43.79 18.204 43.63 17.532 43.31 16.956C43.006 16.364 42.582 15.9 42.038 15.564C41.51 15.212 40.894 15.036 40.19 15.036C39.47 15.036 38.838 15.212 38.294 15.564C37.75 15.9 37.318 16.364 36.998 16.956C36.694 17.532 36.542 18.204 36.542 18.972C36.542 19.724 36.694 20.404 36.998 21.012C37.318 21.604 37.75 22.068 38.294 22.404C38.838 22.74 39.47 22.908 40.19 22.908ZM52.9959 25.5L48.5079 12.444H51.8199L55.1079 22.356L53.9559 22.332L57.4599 12.444H60.2439L63.7239 22.332L62.5719 22.356L65.8599 12.444H69.1719L64.6839 25.5H61.8759L58.3239 15.156H59.3799L55.7799 25.5H52.9959ZM71.3754 25.5V7.332H74.5194V25.5H71.3754ZM84.0943 25.788C82.7503 25.788 81.5743 25.484 80.5663 24.876C79.5583 24.268 78.7743 23.444 78.2143 22.404C77.6543 21.364 77.3743 20.212 77.3743 18.948C77.3743 17.636 77.6543 16.476 78.2143 15.468C78.7903 14.444 79.5663 13.636 80.5423 13.044C81.5343 12.452 82.6383 12.156 83.8543 12.156C84.8783 12.156 85.7743 12.324 86.5423 12.66C87.3263 12.996 87.9903 13.46 88.5343 14.052C89.0783 14.644 89.4943 15.324 89.7823 16.092C90.0703 16.844 90.2143 17.66 90.2143 18.54C90.2143 18.764 90.1983 18.996 90.1663 19.236C90.1503 19.476 90.1103 19.684 90.0463 19.86H79.9663V17.46H88.2703L86.7823 18.588C86.9263 17.852 86.8863 17.196 86.6623 16.62C86.4543 16.044 86.1023 15.588 85.6063 15.252C85.1263 14.916 84.5423 14.748 83.8543 14.748C83.1983 14.748 82.6143 14.916 82.1023 15.252C81.5903 15.572 81.1983 16.052 80.9263 16.692C80.6703 17.316 80.5743 18.076 80.6383 18.972C80.5743 19.772 80.6783 20.484 80.9503 21.108C81.2383 21.716 81.6543 22.188 82.1983 22.524C82.7583 22.86 83.3983 23.028 84.1183 23.028C84.8383 23.028 85.4463 22.876 85.9423 22.572C86.4543 22.268 86.8543 21.86 87.1423 21.348L89.6863 22.596C89.4303 23.22 89.0303 23.772 88.4863 24.252C87.9423 24.732 87.2943 25.108 86.5423 25.38C85.8063 25.652 84.9903 25.788 84.0943 25.788Z" fill="#242424"/>
<path d="M4.97934 46.644C4.41134 46.644 3.89934 46.536 3.44334 46.32C2.99534 46.104 2.61934 45.82 2.31534 45.468C2.01934 45.116 1.80734 44.736 1.67934 44.328L2.37534 44.076C2.59934 44.684 2.93134 45.148 3.37134 45.468C3.81934 45.788 4.35134 45.948 4.96734 45.948C5.37534 45.948 5.73134 45.88 6.03534 45.744C6.34734 45.608 6.59134 45.416 6.76734 45.168C6.94334 44.92 7.03134 44.628 7.03134 44.292C7.03134 43.828 6.89934 43.468 6.63534 43.212C6.37934 42.956 6.04334 42.772 5.62734 42.66L3.99534 42.18C3.33134 41.988 2.83934 41.68 2.51934 41.256C2.20734 40.824 2.05134 40.336 2.05134 39.792C2.05134 39.32 2.16334 38.908 2.38734 38.556C2.61934 38.196 2.93134 37.916 3.32334 37.716C3.71534 37.516 4.15934 37.416 4.65534 37.416C5.17534 37.416 5.63934 37.516 6.04734 37.716C6.46334 37.908 6.81134 38.164 7.09134 38.484C7.37934 38.796 7.58334 39.144 7.70334 39.528L7.01934 39.78C6.81934 39.228 6.51134 38.812 6.09534 38.532C5.67934 38.244 5.20334 38.1 4.66734 38.1C4.31534 38.1 3.99934 38.168 3.71934 38.304C3.43934 38.44 3.21934 38.632 3.05934 38.88C2.89934 39.128 2.81934 39.42 2.81934 39.756C2.81934 40.164 2.93534 40.512 3.16734 40.8C3.39934 41.088 3.78734 41.316 4.33134 41.484L5.79534 41.916C6.43534 42.108 6.92734 42.404 7.27134 42.804C7.62334 43.196 7.79934 43.68 7.79934 44.256C7.79934 44.728 7.67934 45.144 7.43934 45.504C7.19934 45.856 6.86334 46.136 6.43134 46.344C6.00734 46.544 5.52334 46.644 4.97934 46.644ZM12.2103 46.572C11.6823 46.572 11.2743 46.424 10.9863 46.128C10.6983 45.824 10.5543 45.384 10.5543 44.808V40.812H9.35428V40.128H9.81028C10.0503 40.128 10.2343 40.056 10.3623 39.912C10.4903 39.768 10.5543 39.572 10.5543 39.324V38.64H11.2743V40.128H12.6663V40.812H11.2743V44.808C11.2743 44.984 11.2983 45.156 11.3463 45.324C11.4023 45.492 11.5063 45.628 11.6583 45.732C11.8103 45.836 12.0303 45.888 12.3183 45.888C12.3823 45.888 12.4583 45.884 12.5463 45.876C12.6423 45.868 12.7183 45.86 12.7743 45.852V46.5C12.6863 46.524 12.5863 46.54 12.4743 46.548C12.3623 46.564 12.2743 46.572 12.2103 46.572ZM16.9957 46.644C16.5637 46.644 16.1637 46.544 15.7957 46.344C15.4357 46.144 15.1477 45.864 14.9317 45.504C14.7157 45.136 14.6077 44.7 14.6077 44.196V40.128H15.3277V44.136C15.3277 44.512 15.4037 44.836 15.5557 45.108C15.7157 45.372 15.9277 45.576 16.1917 45.72C16.4637 45.864 16.7677 45.936 17.1037 45.936C17.4717 45.936 17.7877 45.852 18.0517 45.684C18.3237 45.516 18.5317 45.284 18.6757 44.988C18.8197 44.684 18.8917 44.34 18.8917 43.956V40.128H19.6117V46.5H18.8917V45.204L19.0718 45.264C18.9277 45.68 18.6717 46.016 18.3037 46.272C17.9357 46.52 17.4997 46.644 16.9957 46.644ZM24.7149 46.644C24.1229 46.644 23.5869 46.5 23.1069 46.212C22.6349 45.916 22.2629 45.516 21.9909 45.012C21.7189 44.508 21.5829 43.94 21.5829 43.308C21.5829 42.676 21.7189 42.108 21.9909 41.604C22.2629 41.1 22.6349 40.704 23.1069 40.416C23.5869 40.128 24.1229 39.984 24.7149 39.984C25.2989 39.984 25.8189 40.124 26.2749 40.404C26.7309 40.676 27.0749 41.044 27.3069 41.508L27.1869 41.736V37.416H27.9069V46.5H27.1869V44.88L27.3069 45.048C27.0829 45.544 26.7389 45.936 26.2749 46.224C25.8189 46.504 25.2989 46.644 24.7149 46.644ZM24.7389 45.924C25.2029 45.924 25.6149 45.812 25.9749 45.588C26.3429 45.356 26.6349 45.044 26.8509 44.652C27.0669 44.252 27.1749 43.804 27.1749 43.308C27.1749 42.812 27.0669 42.368 26.8509 41.976C26.6349 41.584 26.3429 41.276 25.9749 41.052C25.6149 40.82 25.2029 40.704 24.7389 40.704C24.2829 40.704 23.8749 40.82 23.5149 41.052C23.1549 41.276 22.8709 41.584 22.6629 41.976C22.4549 42.368 22.3509 42.812 22.3509 43.308C22.3509 43.804 22.4549 44.252 22.6629 44.652C22.8709 45.044 23.1549 45.356 23.5149 45.588C23.8749 45.812 24.2829 45.924 24.7389 45.924ZM33.0537 46.644C32.4537 46.644 31.9137 46.5 31.4337 46.212C30.9537 45.916 30.5737 45.516 30.2937 45.012C30.0137 44.5 29.8737 43.928 29.8737 43.296C29.8737 42.664 30.0097 42.1 30.2817 41.604C30.5537 41.1 30.9217 40.704 31.3857 40.416C31.8497 40.128 32.3697 39.984 32.9457 39.984C33.3857 39.984 33.7817 40.064 34.1337 40.224C34.4937 40.384 34.8017 40.608 35.0577 40.896C35.3217 41.176 35.5217 41.5 35.6577 41.868C35.8017 42.228 35.8737 42.608 35.8737 43.008C35.8737 43.088 35.8697 43.172 35.8617 43.26C35.8537 43.348 35.8417 43.44 35.8257 43.536H30.2937V42.876H35.4177L35.0937 43.128C35.1417 42.664 35.0737 42.248 34.8897 41.88C34.7057 41.504 34.4417 41.208 34.0977 40.992C33.7617 40.768 33.3777 40.656 32.9457 40.656C32.5137 40.656 32.1177 40.772 31.7577 41.004C31.3977 41.228 31.1137 41.54 30.9057 41.94C30.6977 42.332 30.6017 42.788 30.6177 43.308C30.6017 43.828 30.7017 44.288 30.9177 44.688C31.1337 45.088 31.4297 45.404 31.8057 45.636C32.1817 45.86 32.5977 45.972 33.0537 45.972C33.5177 45.972 33.9217 45.864 34.2657 45.648C34.6097 45.424 34.8897 45.128 35.1057 44.76L35.7177 45.084C35.5737 45.38 35.3697 45.648 35.1057 45.888C34.8417 46.12 34.5337 46.304 34.1817 46.44C33.8377 46.576 33.4617 46.644 33.0537 46.644ZM37.8308 46.5V40.128H38.5508V41.412L38.3708 41.364C38.5148 40.94 38.7708 40.604 39.1388 40.356C39.5148 40.108 39.9508 39.984 40.4468 39.984C40.8868 39.984 41.2868 40.084 41.6468 40.284C42.0068 40.484 42.2948 40.764 42.5108 41.124C42.7268 41.476 42.8348 41.88 42.8348 42.336V46.5H42.1148V42.54C42.1148 42.156 42.0388 41.828 41.8868 41.556C41.7348 41.276 41.5228 41.064 41.2508 40.92C40.9868 40.768 40.6828 40.692 40.3388 40.692C39.9788 40.692 39.6628 40.776 39.3908 40.944C39.1188 41.112 38.9108 41.344 38.7668 41.64C38.6228 41.936 38.5508 42.276 38.5508 42.66V46.5H37.8308ZM47.254 46.572C46.726 46.572 46.318 46.424 46.03 46.128C45.742 45.824 45.598 45.384 45.598 44.808V40.812H44.398V40.128H44.854C45.094 40.128 45.278 40.056 45.406 39.912C45.534 39.768 45.598 39.572 45.598 39.324V38.64H46.318V40.128H47.71V40.812H46.318V44.808C46.318 44.984 46.342 45.156 46.39 45.324C46.446 45.492 46.55 45.628 46.702 45.732C46.854 45.836 47.074 45.888 47.362 45.888C47.426 45.888 47.502 45.884 47.59 45.876C47.686 45.868 47.762 45.86 47.818 45.852V46.5C47.73 46.524 47.63 46.54 47.518 46.548C47.406 46.564 47.318 46.572 47.254 46.572ZM51.212 46.5L54.5 37.56H55.304L58.592 46.5H57.752L56.936 44.22H52.868L52.04 46.5H51.212ZM53.12 43.5H56.672L54.752 38.16H55.04L53.12 43.5ZM60.1572 46.5V37.56H60.9372V46.5H60.1572Z" fill="#9DA4A3"/>
</svg>
