<svg width="22" height="22" viewBox="0 0 22 22" fill="none" xmlns="http://www.w3.org/2000/svg">
<path d="M8.69231 2.53387C8.69231 1.68674 9.37904 1 10.2262 1H11.7738C12.621 1 13.3077 1.68673 13.3077 2.53386V2.98231C13.3077 3.38551 13.5742 3.73771 13.9466 3.89227C14.3192 4.0469 14.7523 3.98419 15.0375 3.69895L15.3548 3.38171C15.9538 2.78272 16.9249 2.78272 17.5239 3.38171L18.6183 4.47614C19.2173 5.07513 19.2173 6.0463 18.6183 6.64529L18.3011 6.96257C18.0158 7.24779 17.9531 7.68083 18.1077 8.05338C18.2623 8.42577 18.6145 8.69231 19.0177 8.69231H19.4661C20.3133 8.69231 21 9.37904 21 10.2262V11.7738C21 12.621 20.3133 13.3077 19.4661 13.3077H19.0178C18.6145 13.3077 18.2623 13.5743 18.1077 13.9467C17.953 14.3194 18.0157 14.7525 18.301 15.0378L18.6181 15.3549C19.217 15.9538 19.217 16.9248 18.6181 17.5237L17.5234 18.6183C16.9245 19.2173 15.9534 19.2173 15.3544 18.6183L15.0372 18.3011C14.752 18.0159 14.319 17.9532 13.9465 18.1078C13.5742 18.2623 13.3077 18.6144 13.3077 19.0176V19.4661C13.3077 20.3133 12.621 21 11.7738 21H10.2262C9.37904 21 8.69231 20.3133 8.69231 19.4661V19.0177C8.69231 18.6145 8.42574 18.2623 8.05331 18.1077C7.68071 17.9531 7.24762 18.0158 6.96236 18.301L6.64513 18.6183C6.04613 19.2173 5.07496 19.2173 4.47597 18.6183L3.3816 17.5239C2.78258 16.9249 2.78258 15.9537 3.3816 15.3547L3.69894 15.0373C3.98414 14.7521 4.04685 14.3191 3.89224 13.9466C3.7377 13.5742 3.38554 13.3077 2.98238 13.3077H2.53387C1.68674 13.3077 1 12.621 1 11.7738V10.2262C1 9.37904 1.68673 8.69231 2.53386 8.69231H2.98226C3.38549 8.69231 3.73771 8.42574 3.89229 8.05331C4.04693 7.68071 3.98422 7.24761 3.69896 6.96235L3.38181 6.64519C2.78286 6.04625 2.78286 5.07517 3.3818 4.47623L4.47637 3.38167C5.07533 2.7827 6.04646 2.7827 6.64542 3.38167L6.96269 3.69894C7.24789 3.98414 7.6809 4.04685 8.05343 3.89224C8.42579 3.7377 8.69231 3.38555 8.69231 2.98239V2.53387Z" stroke="#3A52EE" stroke-width="1.5" stroke-linecap="round" stroke-linejoin="round"/>
<path d="M14 11C14 12.6569 12.6569 14 11 14C9.34315 14 8 12.6569 8 11C8 9.34315 9.34315 8 11 8C12.6569 8 14 9.34315 14 11Z" stroke="#3A52EE" stroke-width="1.5" stroke-linecap="round" stroke-linejoin="round"/>
</svg>
