<svg width="89" height="19" viewBox="0 0 89 19" fill="none" xmlns="http://www.w3.org/2000/svg">
<path d="M0.594406 18.5V0.619998H3.85841V9.932L2.97041 9.62L10.5784 0.619998H14.6824L7.55441 9.068L7.74641 6.764L14.8984 18.5H11.0584L6.25841 10.628L3.85841 13.484V18.5H0.594406ZM17.0995 18.5V5.444H20.0515V8.012L19.8115 7.556C20.1155 6.772 20.6115 6.18 21.2995 5.78C22.0035 5.364 22.8195 5.156 23.7475 5.156C24.7075 5.156 25.5555 5.364 26.2915 5.78C27.0435 6.196 27.6275 6.78 28.0435 7.532C28.4595 8.268 28.6675 9.124 28.6675 10.1V18.5H25.5235V10.844C25.5235 10.268 25.4115 9.772 25.1875 9.356C24.9635 8.94 24.6515 8.62 24.2515 8.396C23.8675 8.156 23.4115 8.036 22.8835 8.036C22.3715 8.036 21.9155 8.156 21.5155 8.396C21.1155 8.62 20.8035 8.94 20.5795 9.356C20.3555 9.772 20.2435 10.268 20.2435 10.844V18.5H17.0995ZM38.19 18.788C36.91 18.788 35.742 18.492 34.686 17.9C33.646 17.308 32.814 16.5 32.19 15.476C31.582 14.452 31.278 13.284 31.278 11.972C31.278 10.66 31.582 9.492 32.19 8.468C32.814 7.444 33.646 6.636 34.686 6.044C35.726 5.452 36.894 5.156 38.19 5.156C39.47 5.156 40.63 5.452 41.67 6.044C42.71 6.636 43.534 7.444 44.142 8.468C44.766 9.476 45.078 10.644 45.078 11.972C45.078 13.284 44.766 14.452 44.142 15.476C43.518 16.5 42.686 17.308 41.646 17.9C40.606 18.492 39.454 18.788 38.19 18.788ZM38.19 15.908C38.894 15.908 39.51 15.74 40.038 15.404C40.582 15.068 41.006 14.604 41.31 14.012C41.63 13.404 41.79 12.724 41.79 11.972C41.79 11.204 41.63 10.532 41.31 9.956C41.006 9.364 40.582 8.9 40.038 8.564C39.51 8.212 38.894 8.036 38.19 8.036C37.47 8.036 36.838 8.212 36.294 8.564C35.75 8.9 35.318 9.364 34.998 9.956C34.694 10.532 34.542 11.204 34.542 11.972C34.542 12.724 34.694 13.404 34.998 14.012C35.318 14.604 35.75 15.068 36.294 15.404C36.838 15.74 37.47 15.908 38.19 15.908ZM50.9959 18.5L46.5079 5.444H49.8199L53.1079 15.356L51.9559 15.332L55.4599 5.444H58.2439L61.7239 15.332L60.5719 15.356L63.8599 5.444H67.1719L62.6839 18.5H59.8759L56.3239 8.156H57.3799L53.7799 18.5H50.9959ZM69.3754 18.5V0.331999H72.5194V18.5H69.3754ZM82.0943 18.788C80.7503 18.788 79.5743 18.484 78.5663 17.876C77.5583 17.268 76.7743 16.444 76.2143 15.404C75.6543 14.364 75.3743 13.212 75.3743 11.948C75.3743 10.636 75.6543 9.476 76.2143 8.468C76.7903 7.444 77.5663 6.636 78.5423 6.044C79.5343 5.452 80.6383 5.156 81.8543 5.156C82.8783 5.156 83.7743 5.324 84.5423 5.66C85.3263 5.996 85.9903 6.46 86.5343 7.052C87.0783 7.644 87.4943 8.324 87.7823 9.092C88.0703 9.844 88.2143 10.66 88.2143 11.54C88.2143 11.764 88.1983 11.996 88.1663 12.236C88.1503 12.476 88.1103 12.684 88.0463 12.86H77.9663V10.46H86.2703L84.7823 11.588C84.9263 10.852 84.8863 10.196 84.6623 9.62C84.4543 9.044 84.1023 8.588 83.6063 8.252C83.1263 7.916 82.5423 7.748 81.8543 7.748C81.1983 7.748 80.6143 7.916 80.1023 8.252C79.5903 8.572 79.1983 9.052 78.9263 9.692C78.6703 10.316 78.5743 11.076 78.6383 11.972C78.5743 12.772 78.6783 13.484 78.9503 14.108C79.2383 14.716 79.6543 15.188 80.1983 15.524C80.7583 15.86 81.3983 16.028 82.1183 16.028C82.8383 16.028 83.4463 15.876 83.9423 15.572C84.4543 15.268 84.8543 14.86 85.1423 14.348L87.6863 15.596C87.4303 16.22 87.0303 16.772 86.4863 17.252C85.9423 17.732 85.2943 18.108 84.5423 18.38C83.8063 18.652 82.9903 18.788 82.0943 18.788Z" fill="#242424"/>
</svg>
