<svg width="22" height="22" viewBox="0 0 22 22" fill="none" xmlns="http://www.w3.org/2000/svg">
<path fill-rule="evenodd" clip-rule="evenodd" d="M15.2408 11C15.2408 10.5582 14.8956 10.2 14.4697 10.2H3.18862L5.20441 8.40742C5.52775 8.11988 5.5652 7.61484 5.28805 7.27938C5.01091 6.94392 4.52411 6.90507 4.20078 7.19261L0.602345 10.3926C0.431429 10.5446 0.333069 10.7664 0.333069 11C0.333069 11.2335 0.431429 11.4554 0.602345 11.6074L4.20078 14.8074C4.52411 15.095 5.01091 15.0561 5.28805 14.7207C5.5652 14.3852 5.52775 13.8801 5.20442 13.5926L3.18862 11.8H14.4697C14.8956 11.8 15.2408 11.4418 15.2408 11Z" fill="white"/>
<path d="M8.30093 6.73324C8.30093 7.48225 8.30093 7.85675 8.47418 8.12578C8.5492 8.24227 8.64561 8.34229 8.75789 8.42011C9.01721 8.59987 9.37818 8.59987 10.1001 8.59987H14.4697C15.7473 8.59987 16.7829 9.67438 16.7829 10.9998C16.7829 12.3254 15.7473 13.3998 14.4697 13.3998H10.1002C9.37818 13.3998 9.01721 13.3998 8.75783 13.5797C8.6456 13.6574 8.54923 13.7575 8.47422 13.8738C8.30093 14.143 8.30093 14.5175 8.30093 15.2666C8.30093 18.2835 8.30093 19.792 9.20433 20.7293C10.1077 21.6666 11.5615 21.6666 14.4694 21.6666H15.4976C18.4055 21.6666 19.8595 21.6666 20.7629 20.7293C21.6663 19.792 21.6663 18.2835 21.6663 15.2666V6.73324C21.6663 3.71627 21.6663 2.20776 20.7629 1.27051C19.8595 0.333252 18.4055 0.333252 15.4976 0.333252H14.4694C11.5615 0.333252 10.1077 0.333252 9.20433 1.27051C8.30093 2.20777 8.30093 3.71626 8.30093 6.73324Z" fill="white"/>
</svg>
