<svg width="61" height="62" viewBox="0 0 61 62" fill="none" xmlns="http://www.w3.org/2000/svg">
<g filter="url(#filter0_d_2003_153)">
<path d="M30.5 53.0122C44.8661 53.0122 56.5122 41.3661 56.5122 27C56.5122 12.6338 44.8661 0.987793 30.5 0.987793C16.1339 0.987793 4.48782 12.6338 4.48782 27C4.48782 41.3661 16.1339 53.0122 30.5 53.0122Z" fill="#5A66FF"/>
<path d="M16.3183 33.0627C16.3183 33.0627 16.1964 37.3533 22.8031 38.3529C22.8031 38.3529 27.6301 44.3744 33.7736 38.1578C33.7736 38.1578 35.6995 41.5952 40.0389 39.8156C40.0389 39.8156 42.2818 43.3749 48.0352 40.4738C48.0352 40.4738 46.0605 39.8887 46.3286 38.1578C46.5968 36.4513 45.6704 34.9154 45.0122 34.0622C45.0122 34.0622 46.9381 33.599 47.1331 30.4298C47.1331 30.4298 54.8612 25.5296 47.255 19.8493C47.255 19.8493 46.4018 13.6327 39.0638 14.6323C39.0638 14.6323 35.4313 9.87841 29.361 13.8278C29.361 13.8278 23.5588 11.3168 19.9751 16.2169C19.9751 16.2169 13.7098 17.4115 14.7337 23.7256L16.3183 33.0627Z" fill="white"/>
<path d="M16.5062 32.9309C18.9517 31.9395 20.1305 29.1533 19.139 26.7077C18.1476 24.2622 15.3613 23.0835 12.9158 24.0749C10.4703 25.0664 9.29156 27.8526 10.283 30.2981C11.2745 32.7436 14.0607 33.9224 16.5062 32.9309Z" fill="#5A66FF"/>
<path d="M28.8978 32.8431C31.5368 32.8431 33.6761 30.7038 33.6761 28.0649C33.6761 25.4259 31.5368 23.2866 28.8978 23.2866C26.2589 23.2866 24.1196 25.4259 24.1196 28.0649C24.1196 30.7038 26.2589 32.8431 28.8978 32.8431Z" fill="#5A66FF"/>
<path d="M47.8889 30.9173C53.2035 28.6501 52.8866 20.8489 47.4013 19.0205C46.9625 15.193 42.8425 12.5845 39.1369 13.8278C36.9672 10.366 31.7501 10.0247 29.1172 13.0477C25.7773 11.4143 21.3404 12.3163 19.5364 15.6806C15.8795 15.6806 13.2466 19.4837 13.6854 23.0186C7.00565 25.0908 8.80968 34.8423 15.8552 34.3304C16.3427 37.2071 19.8533 39.645 22.7056 39.3524C23.5832 40.4007 24.7534 41.1564 26.143 41.5221C26.7281 41.6928 27.3863 41.7659 28.0202 41.7659C29.9705 41.7659 32.0427 41.0102 33.5298 39.2061C35.0169 40.8639 37.5767 41.5221 39.6976 40.7176C41.2091 42.1316 42.8425 42.5948 44.3052 42.5948C46.0849 42.5948 47.6207 41.8634 48.3765 41.2296C48.5715 41.0589 48.669 40.7908 48.6447 40.5226C48.6203 40.2544 48.474 40.0106 48.2302 39.8888C47.1819 39.2793 47.1575 38.7429 47.1332 37.6459C47.1088 36.7439 47.06 35.6468 46.3287 34.4035C47.2794 33.5259 47.8889 32.2826 47.8889 30.9173ZM11.15 28.577C11.15 26.3098 13.0028 24.457 15.2701 24.457C20.7309 24.6764 20.7309 32.502 15.2701 32.697C13.0028 32.697 11.15 30.8442 11.15 28.577ZM46.2312 30.4541C46.4993 32.2582 45.0366 33.9159 43.2326 33.8916C41.5504 33.8916 40.2096 32.5263 40.2096 30.8686C40.2096 30.4054 39.8439 30.0397 39.3807 30.0397C38.9175 30.0397 38.5518 30.4054 38.5518 30.8686C38.5031 34.111 41.9405 36.4513 44.9147 35.2324C45.4267 36.0857 45.451 36.8658 45.4754 37.6703C45.4998 38.5723 45.5485 39.5962 46.3774 40.4738C45.2072 40.9858 43.1838 41.3515 41.2335 39.8156C41.4285 39.6693 41.5992 39.4987 41.7698 39.328C42.5256 38.5235 41.4041 37.4265 40.5996 38.1579C38.7712 40.035 35.4801 39.5962 34.2124 37.3046C34.0661 37.0608 33.798 36.8902 33.5054 36.8902C33.2129 36.8902 32.9447 37.0364 32.7984 37.3046C31.3357 39.84 28.6297 40.4251 26.5818 39.8644C24.7778 39.3768 22.8763 37.8409 22.8763 34.9398C22.8275 33.8428 21.2673 33.8428 21.2185 34.9398C21.2185 35.8906 21.3891 36.7926 21.7304 37.6215C19.902 37.4265 17.7323 35.6956 17.4885 33.8672C20.4871 32.7214 21.9986 28.8939 20.4871 25.9684C21.511 25.5296 22.73 25.5296 23.7295 25.9684C21.828 29.6984 24.6803 34.3548 28.8978 34.306C32.0914 34.306 34.6756 31.7218 34.6756 28.5282C34.6756 23.2868 28.1665 20.8001 24.6803 24.6032C23.0957 23.7987 21.121 23.7987 19.512 24.6032C18.4637 23.4818 16.9766 22.7748 15.3432 22.7504C15.1969 21.2877 15.6601 19.8006 16.5865 18.7279C17.4642 17.704 18.6831 17.1921 19.9996 17.2896C20.3409 17.314 20.6578 17.1189 20.8041 16.802C21.5598 15.1443 22.8519 14.4373 23.827 14.1203C25.1922 13.6815 26.7769 13.779 28.1665 14.3641C27.8983 14.8761 27.7033 15.4612 27.5814 16.0463C24.8997 15.8025 22.3155 17.3384 21.2185 19.7762C21.0235 20.1907 21.2185 20.6782 21.6329 20.8733C22.0474 21.0683 22.5349 20.8733 22.73 20.4588C23.632 18.411 25.948 17.2652 28.1177 17.8015C28.3615 17.8503 28.6053 17.8015 28.8003 17.6553C28.9953 17.509 29.1172 17.2896 29.1172 17.0458C29.166 16.1194 29.4829 15.2662 29.9705 14.5592C29.9949 14.5348 30.0192 14.5104 30.0436 14.4617C32.0427 11.6825 36.5284 11.9994 38.0642 15.1443C38.2593 15.5343 38.7469 15.705 39.1369 15.5343C42.1111 14.1203 45.7192 16.3388 45.8167 19.63C45.8411 19.9956 46.0849 20.3126 46.4506 20.3857C51.0825 21.4827 51.3263 28.0406 46.7919 29.479C46.4018 29.6984 46.158 30.0641 46.2312 30.4541ZM28.8734 24.4326C31.1407 24.4326 32.9935 26.2854 32.9935 28.5526C32.774 34.0135 24.9485 34.0135 24.7534 28.5526C24.7534 26.2854 26.6062 24.4326 28.8734 24.4326Z" fill="#0E0E5E"/>
<path d="M41.6479 20.0201C41.9649 19.7031 41.9649 19.1668 41.6479 18.8499C41.331 18.533 40.7947 18.533 40.4778 18.8499C38.6981 20.6539 35.5776 19.3375 35.5776 16.8264C35.5776 16.3632 35.2119 15.9976 34.7487 15.9976C34.2855 15.9976 33.9199 16.3632 33.9199 16.8264C33.9199 20.8246 38.8688 22.8724 41.6479 20.0201Z" fill="#0E0E5E"/>
<path d="M47.3282 24.6762C47.4501 24.2374 47.1819 23.7742 46.7431 23.6767C45.0853 23.2379 43.3057 23.6523 41.9892 24.7493C40.8922 23.9448 39.2101 23.8717 38.0155 24.5787C37.6254 24.7981 37.4792 25.3101 37.7229 25.7001C37.9424 26.0902 38.4543 26.2364 38.8444 25.9927C40.2583 25.1394 42.1111 26.334 41.9161 27.9917C41.8673 28.4549 42.2086 28.845 42.6475 28.8937C43.0863 28.9425 43.5007 28.6012 43.5495 28.1624C43.6226 27.3823 43.452 26.5778 43.0863 25.9439C44.0127 25.2125 45.2072 24.9444 46.3043 25.2369C46.7675 25.3832 47.2063 25.115 47.3282 24.6762Z" fill="#0E0E5E"/>
</g>
<defs>
<filter id="filter0_d_2003_153" x="0.487823" y="0.987793" width="60.0244" height="60.0244" filterUnits="userSpaceOnUse" color-interpolation-filters="sRGB">
<feFlood flood-opacity="0" result="BackgroundImageFix"/>
<feColorMatrix in="SourceAlpha" type="matrix" values="0 0 0 0 0 0 0 0 0 0 0 0 0 0 0 0 0 0 127 0" result="hardAlpha"/>
<feOffset dy="4"/>
<feGaussianBlur stdDeviation="2"/>
<feComposite in2="hardAlpha" operator="out"/>
<feColorMatrix type="matrix" values="0 0 0 0 0 0 0 0 0 0 0 0 0 0 0 0 0 0 0.25 0"/>
<feBlend mode="normal" in2="BackgroundImageFix" result="effect1_dropShadow_2003_153"/>
<feBlend mode="normal" in="SourceGraphic" in2="effect1_dropShadow_2003_153" result="shape"/>
</filter>
</defs>
</svg>
