<svg width="53" height="54" viewBox="0 0 53 54" fill="none" xmlns="http://www.w3.org/2000/svg">
<path d="M26.5 53.0122C40.8661 53.0122 52.5122 41.3661 52.5122 27C52.5122 12.6338 40.8661 0.987793 26.5 0.987793C12.1339 0.987793 0.487823 12.6338 0.487823 27C0.487823 41.3661 12.1339 53.0122 26.5 53.0122Z" fill="#5A66FF"/>
<path d="M12.3183 33.0627C12.3183 33.0627 12.1964 37.3533 18.8031 38.3529C18.8031 38.3529 23.6301 44.3744 29.7736 38.1578C29.7736 38.1578 31.6995 41.5952 36.0389 39.8156C36.0389 39.8156 38.2818 43.3749 44.0352 40.4738C44.0352 40.4738 42.0605 39.8887 42.3286 38.1578C42.5968 36.4513 41.6704 34.9154 41.0122 34.0622C41.0122 34.0622 42.9381 33.599 43.1331 30.4298C43.1331 30.4298 50.8612 25.5296 43.255 19.8493C43.255 19.8493 42.4018 13.6327 35.0638 14.6323C35.0638 14.6323 31.4313 9.87841 25.361 13.8278C25.361 13.8278 19.5588 11.3168 15.9751 16.2169C15.9751 16.2169 9.70979 17.4115 10.7337 23.7256L12.3183 33.0627Z" fill="white"/>
<path d="M12.5062 32.9309C14.9517 31.9395 16.1305 29.1533 15.139 26.7077C14.1476 24.2622 11.3613 23.0835 8.91582 24.0749C6.47031 25.0664 5.29156 27.8526 6.28301 30.2981C7.27447 32.7436 10.0607 33.9224 12.5062 32.9309Z" fill="#5A66FF"/>
<path d="M24.8978 32.8431C27.5368 32.8431 29.6761 30.7038 29.6761 28.0649C29.6761 25.4259 27.5368 23.2866 24.8978 23.2866C22.2589 23.2866 20.1196 25.4259 20.1196 28.0649C20.1196 30.7038 22.2589 32.8431 24.8978 32.8431Z" fill="#5A66FF"/>
<path d="M43.8889 30.9173C49.2035 28.6501 48.8866 20.8489 43.4013 19.0205C42.9625 15.193 38.8425 12.5845 35.1369 13.8278C32.9672 10.366 27.7501 10.0247 25.1172 13.0477C21.7773 11.4143 17.3404 12.3163 15.5364 15.6806C11.8795 15.6806 9.24662 19.4837 9.68544 23.0186C3.00565 25.0908 4.80968 34.8423 11.8552 34.3304C12.3427 37.2071 15.8533 39.645 18.7056 39.3524C19.5832 40.4007 20.7534 41.1564 22.143 41.5221C22.7281 41.6928 23.3863 41.7659 24.0202 41.7659C25.9705 41.7659 28.0427 41.0102 29.5298 39.2061C31.0169 40.8639 33.5767 41.5221 35.6976 40.7176C37.2091 42.1316 38.8425 42.5948 40.3052 42.5948C42.0849 42.5948 43.6207 41.8634 44.3765 41.2296C44.5715 41.0589 44.669 40.7908 44.6447 40.5226C44.6203 40.2544 44.474 40.0106 44.2302 39.8888C43.1819 39.2793 43.1575 38.7429 43.1332 37.6459C43.1088 36.7439 43.06 35.6468 42.3287 34.4035C43.2794 33.5259 43.8889 32.2826 43.8889 30.9173ZM7.15004 28.577C7.15004 26.3098 9.00283 24.457 11.2701 24.457C16.7309 24.6764 16.7309 32.502 11.2701 32.697C9.00283 32.697 7.15004 30.8442 7.15004 28.577ZM42.2312 30.4541C42.4993 32.2582 41.0366 33.9159 39.2326 33.8916C37.5504 33.8916 36.2096 32.5263 36.2096 30.8686C36.2096 30.4054 35.8439 30.0397 35.3807 30.0397C34.9175 30.0397 34.5518 30.4054 34.5518 30.8686C34.5031 34.111 37.9405 36.4513 40.9147 35.2324C41.4267 36.0857 41.451 36.8658 41.4754 37.6703C41.4998 38.5723 41.5485 39.5962 42.3774 40.4738C41.2072 40.9858 39.1838 41.3515 37.2335 39.8156C37.4285 39.6693 37.5992 39.4987 37.7698 39.328C38.5256 38.5235 37.4041 37.4265 36.5996 38.1579C34.7712 40.035 31.4801 39.5962 30.2124 37.3046C30.0661 37.0608 29.798 36.8902 29.5054 36.8902C29.2129 36.8902 28.9447 37.0364 28.7984 37.3046C27.3357 39.84 24.6297 40.4251 22.5818 39.8644C20.7778 39.3768 18.8763 37.8409 18.8763 34.9398C18.8275 33.8428 17.2673 33.8428 17.2185 34.9398C17.2185 35.8906 17.3891 36.7926 17.7304 37.6215C15.902 37.4265 13.7323 35.6956 13.4885 33.8672C16.4871 32.7214 17.9986 28.8939 16.4871 25.9684C17.511 25.5296 18.73 25.5296 19.7295 25.9684C17.828 29.6984 20.6803 34.3548 24.8978 34.306C28.0914 34.306 30.6756 31.7218 30.6756 28.5282C30.6756 23.2868 24.1665 20.8001 20.6803 24.6032C19.0957 23.7987 17.121 23.7987 15.512 24.6032C14.4637 23.4818 12.9766 22.7748 11.3432 22.7504C11.1969 21.2877 11.6601 19.8006 12.5865 18.7279C13.4642 17.704 14.6831 17.1921 15.9996 17.2896C16.3409 17.314 16.6578 17.1189 16.8041 16.802C17.5598 15.1443 18.8519 14.4373 19.827 14.1203C21.1922 13.6815 22.7769 13.779 24.1665 14.3641C23.8983 14.8761 23.7033 15.4612 23.5814 16.0463C20.8997 15.8025 18.3155 17.3384 17.2185 19.7762C17.0235 20.1907 17.2185 20.6782 17.6329 20.8733C18.0474 21.0683 18.5349 20.8733 18.73 20.4588C19.632 18.411 21.948 17.2652 24.1177 17.8015C24.3615 17.8503 24.6053 17.8015 24.8003 17.6553C24.9953 17.509 25.1172 17.2896 25.1172 17.0458C25.166 16.1194 25.4829 15.2662 25.9705 14.5592C25.9949 14.5348 26.0192 14.5104 26.0436 14.4617C28.0427 11.6825 32.5284 11.9994 34.0642 15.1443C34.2593 15.5343 34.7469 15.705 35.1369 15.5343C38.1111 14.1203 41.7192 16.3388 41.8167 19.63C41.8411 19.9956 42.0849 20.3126 42.4506 20.3857C47.0825 21.4827 47.3263 28.0406 42.7919 29.479C42.4018 29.6984 42.158 30.0641 42.2312 30.4541ZM24.8734 24.4326C27.1407 24.4326 28.9935 26.2854 28.9935 28.5526C28.774 34.0135 20.9485 34.0135 20.7534 28.5526C20.7534 26.2854 22.6062 24.4326 24.8734 24.4326Z" fill="#0E0E5E"/>
<path d="M37.6479 20.0201C37.9649 19.7031 37.9649 19.1668 37.6479 18.8499C37.331 18.533 36.7947 18.533 36.4778 18.8499C34.6981 20.6539 31.5776 19.3375 31.5776 16.8264C31.5776 16.3632 31.2119 15.9976 30.7487 15.9976C30.2855 15.9976 29.9199 16.3632 29.9199 16.8264C29.9199 20.8246 34.8688 22.8724 37.6479 20.0201Z" fill="#0E0E5E"/>
<path d="M43.3282 24.6762C43.4501 24.2374 43.1819 23.7742 42.7431 23.6767C41.0853 23.2379 39.3057 23.6523 37.9892 24.7493C36.8922 23.9448 35.2101 23.8717 34.0155 24.5787C33.6254 24.7981 33.4792 25.3101 33.7229 25.7001C33.9424 26.0902 34.4543 26.2364 34.8444 25.9927C36.2583 25.1394 38.1111 26.334 37.9161 27.9917C37.8673 28.4549 38.2086 28.845 38.6475 28.8937C39.0863 28.9425 39.5007 28.6012 39.5495 28.1624C39.6226 27.3823 39.452 26.5778 39.0863 25.9439C40.0127 25.2125 41.2072 24.9444 42.3043 25.2369C42.7675 25.3832 43.2063 25.115 43.3282 24.6762Z" fill="#0E0E5E"/>
</svg>
