<svg width="20" height="24" viewBox="0 0 20 24" fill="none" xmlns="http://www.w3.org/2000/svg">
<path d="M9.9935 3C6.12751 3 2.9935 6.13401 2.9935 10V14.2L1.72715 15.7196C0.6416 17.0223 1.56791 19 3.26359 19H16.7234C18.4191 19 19.3454 17.0223 18.2599 15.7196L16.9935 14.2V10C16.9935 9.61257 16.962 9.2325 16.9015 8.86219M9.9935 3V1M9.9935 3C11.3577 3 12.6308 3.39026 13.7072 4.06522M13.7072 4.06522C13.266 4.58755 13 5.26272 13 6C13 7.65685 14.3431 9 16 9C16.3141 9 16.617 8.95172 16.9015 8.86219M13.7072 4.06522C14.2575 3.41374 15.0804 3 16 3C17.6569 3 19 4.34315 19 6C19 7.34274 18.1179 8.47945 16.9015 8.86219M13.9998 19C13.9998 19.5253 13.8963 20.0454 13.6953 20.5307C13.4943 21.016 13.1996 21.457 12.8282 21.8284C12.4568 22.1999 12.0158 22.4945 11.5305 22.6955C11.0452 22.8965 10.5251 23 9.99976 23C9.47448 23 8.95433 22.8965 8.46903 22.6955C7.98373 22.4945 7.54277 22.1999 7.17134 21.8284C6.7999 21.457 6.50527 21.016 6.30425 20.5307C6.10323 20.0454 5.99977 19.5253 5.99977 19H13.9998Z" stroke="#3A52EE" stroke-width="1.5" stroke-linecap="round" stroke-linejoin="round"/>
</svg>
