<svg width="36" height="36" viewBox="0 0 36 36" fill="none" xmlns="http://www.w3.org/2000/svg">
<path fill-rule="evenodd" clip-rule="evenodd" d="M0.5 18C0.5 8.33502 8.33502 0.5 18 0.5C27.665 0.5 35.5 8.33502 35.5 18C35.5 27.665 27.665 35.5 18 35.5C8.33502 35.5 0.5 27.665 0.5 18ZM17.1161 12.6339C16.628 12.1457 16.628 11.3543 17.1161 10.8661C17.6043 10.378 18.3957 10.378 18.8839 10.8661L25.1339 17.1161C25.622 17.6043 25.622 18.3957 25.1339 18.8839L18.8839 25.1339C18.3957 25.622 17.6043 25.622 17.1161 25.1339C16.628 24.6457 16.628 23.8543 17.1161 23.3661L21.2322 19.25H11.75C11.0596 19.25 10.5 18.6904 10.5 18C10.5 17.3096 11.0596 16.75 11.75 16.75H21.2322L17.1161 12.6339Z" fill="#3A52EE"/>
</svg>
