<svg width="32" height="32" viewBox="0 0 32 32" fill="none" xmlns="http://www.w3.org/2000/svg">
<path d="M13.6923 7.53387C13.6923 6.68674 14.379 6 15.2262 6H16.7738C17.621 6 18.3077 6.68673 18.3077 7.53386V7.98231C18.3077 8.38551 18.5742 8.73771 18.9466 8.89227C19.3192 9.0469 19.7523 8.98419 20.0375 8.69895L20.3548 8.38171C20.9538 7.78272 21.9249 7.78272 22.5239 8.38171L23.6183 9.47614C24.2173 10.0751 24.2173 11.0463 23.6183 11.6453L23.3011 11.9626C23.0158 12.2478 22.9531 12.6808 23.1077 13.0534C23.2623 13.4258 23.6145 13.6923 24.0177 13.6923H24.4661C25.3133 13.6923 26 14.379 26 15.2262V16.7738C26 17.621 25.3133 18.3077 24.4661 18.3077H24.0178C23.6145 18.3077 23.2623 18.5743 23.1077 18.9467C22.953 19.3194 23.0157 19.7525 23.301 20.0378L23.6181 20.3549C24.217 20.9538 24.217 21.9248 23.6181 22.5237L22.5234 23.6183C21.9245 24.2173 20.9534 24.2173 20.3544 23.6183L20.0372 23.3011C19.752 23.0159 19.319 22.9532 18.9465 23.1078C18.5742 23.2623 18.3077 23.6144 18.3077 24.0176V24.4661C18.3077 25.3133 17.621 26 16.7738 26H15.2262C14.379 26 13.6923 25.3133 13.6923 24.4661V24.0177C13.6923 23.6145 13.4257 23.2623 13.0533 23.1077C12.6807 22.9531 12.2476 23.0158 11.9624 23.301L11.6451 23.6183C11.0461 24.2173 10.075 24.2173 9.47597 23.6183L8.3816 22.5239C7.78258 21.9249 7.78258 20.9537 8.3816 20.3547L8.69894 20.0373C8.98414 19.7521 9.04685 19.3191 8.89224 18.9466C8.7377 18.5742 8.38554 18.3077 7.98238 18.3077H7.53387C6.68674 18.3077 6 17.621 6 16.7738V15.2262C6 14.379 6.68673 13.6923 7.53386 13.6923H7.98226C8.38549 13.6923 8.73771 13.4257 8.89229 13.0533C9.04693 12.6807 8.98422 12.2476 8.69896 11.9623L8.38181 11.6452C7.78286 11.0462 7.78286 10.0752 8.3818 9.47623L9.47637 8.38167C10.0753 7.7827 11.0465 7.7827 11.6454 8.38167L11.9627 8.69894C12.2479 8.98414 12.6809 9.04685 13.0534 8.89224C13.4258 8.7377 13.6923 8.38555 13.6923 7.98239V7.53387Z" stroke="#3A52EE" stroke-width="1.5" stroke-linecap="round" stroke-linejoin="round"/>
<path d="M19 16C19 17.6569 17.6569 19 16 19C14.3431 19 13 17.6569 13 16C13 14.3431 14.3431 13 16 13C17.6569 13 19 14.3431 19 16Z" stroke="#3A52EE" stroke-width="1.5" stroke-linecap="round" stroke-linejoin="round"/>
</svg>
