<svg width="60" height="10" viewBox="0 0 60 10" fill="none" xmlns="http://www.w3.org/2000/svg">
<path d="M3.97934 9.644C3.41134 9.644 2.89934 9.536 2.44334 9.32C1.99534 9.104 1.61934 8.82 1.31534 8.468C1.01934 8.116 0.807344 7.736 0.679344 7.328L1.37534 7.076C1.59934 7.684 1.93134 8.148 2.37134 8.468C2.81934 8.788 3.35134 8.948 3.96734 8.948C4.37534 8.948 4.73134 8.88 5.03534 8.744C5.34734 8.608 5.59134 8.416 5.76734 8.168C5.94334 7.92 6.03134 7.628 6.03134 7.292C6.03134 6.828 5.89934 6.468 5.63534 6.212C5.37934 5.956 5.04334 5.772 4.62734 5.66L2.99534 5.18C2.33134 4.988 1.83934 4.68 1.51934 4.256C1.20734 3.824 1.05134 3.336 1.05134 2.792C1.05134 2.32 1.16334 1.908 1.38734 1.556C1.61934 1.196 1.93134 0.916 2.32334 0.715999C2.71534 0.516 3.15934 0.416 3.65534 0.416C4.17534 0.416 4.63934 0.516 5.04734 0.715999C5.46334 0.908 5.81134 1.164 6.09134 1.484C6.37934 1.796 6.58334 2.144 6.70334 2.528L6.01934 2.78C5.81934 2.228 5.51134 1.812 5.09534 1.532C4.67934 1.244 4.20334 1.1 3.66734 1.1C3.31534 1.1 2.99934 1.168 2.71934 1.304C2.43934 1.44 2.21934 1.632 2.05934 1.88C1.89934 2.128 1.81934 2.42 1.81934 2.756C1.81934 3.164 1.93534 3.512 2.16734 3.8C2.39934 4.088 2.78734 4.316 3.33134 4.484L4.79534 4.916C5.43534 5.108 5.92734 5.404 6.27134 5.804C6.62334 6.196 6.79934 6.68 6.79934 7.256C6.79934 7.728 6.67934 8.144 6.43934 8.504C6.19934 8.856 5.86334 9.136 5.43134 9.344C5.00734 9.544 4.52334 9.644 3.97934 9.644ZM11.2103 9.572C10.6823 9.572 10.2743 9.424 9.98628 9.128C9.69828 8.824 9.55428 8.384 9.55428 7.808V3.812H8.35428V3.128H8.81028C9.05028 3.128 9.23428 3.056 9.36228 2.912C9.49028 2.768 9.55428 2.572 9.55428 2.324V1.64H10.2743V3.128H11.6663V3.812H10.2743V7.808C10.2743 7.984 10.2983 8.156 10.3463 8.324C10.4023 8.492 10.5063 8.628 10.6583 8.732C10.8103 8.836 11.0303 8.888 11.3183 8.888C11.3823 8.888 11.4583 8.884 11.5463 8.876C11.6423 8.868 11.7183 8.86 11.7743 8.852V9.5C11.6863 9.524 11.5863 9.54 11.4743 9.548C11.3623 9.564 11.2743 9.572 11.2103 9.572ZM15.9957 9.644C15.5637 9.644 15.1637 9.544 14.7957 9.344C14.4357 9.144 14.1477 8.864 13.9317 8.504C13.7157 8.136 13.6077 7.7 13.6077 7.196V3.128H14.3277V7.136C14.3277 7.512 14.4037 7.836 14.5557 8.108C14.7157 8.372 14.9277 8.576 15.1917 8.72C15.4637 8.864 15.7677 8.936 16.1037 8.936C16.4717 8.936 16.7877 8.852 17.0517 8.684C17.3237 8.516 17.5317 8.284 17.6757 7.988C17.8197 7.684 17.8917 7.34 17.8917 6.956V3.128H18.6117V9.5H17.8917V8.204L18.0718 8.264C17.9277 8.68 17.6717 9.016 17.3037 9.272C16.9357 9.52 16.4997 9.644 15.9957 9.644ZM23.7149 9.644C23.1229 9.644 22.5869 9.5 22.1069 9.212C21.6349 8.916 21.2629 8.516 20.9909 8.012C20.7189 7.508 20.5829 6.94 20.5829 6.308C20.5829 5.676 20.7189 5.108 20.9909 4.604C21.2629 4.1 21.6349 3.704 22.1069 3.416C22.5869 3.128 23.1229 2.984 23.7149 2.984C24.2989 2.984 24.8189 3.124 25.2749 3.404C25.7309 3.676 26.0749 4.044 26.3069 4.508L26.1869 4.736V0.416H26.9069V9.5H26.1869V7.88L26.3069 8.048C26.0829 8.544 25.7389 8.936 25.2749 9.224C24.8189 9.504 24.2989 9.644 23.7149 9.644ZM23.7389 8.924C24.2029 8.924 24.6149 8.812 24.9749 8.588C25.3429 8.356 25.6349 8.044 25.8509 7.652C26.0669 7.252 26.1749 6.804 26.1749 6.308C26.1749 5.812 26.0669 5.368 25.8509 4.976C25.6349 4.584 25.3429 4.276 24.9749 4.052C24.6149 3.82 24.2029 3.704 23.7389 3.704C23.2829 3.704 22.8749 3.82 22.5149 4.052C22.1549 4.276 21.8709 4.584 21.6629 4.976C21.4549 5.368 21.3509 5.812 21.3509 6.308C21.3509 6.804 21.4549 7.252 21.6629 7.652C21.8709 8.044 22.1549 8.356 22.5149 8.588C22.8749 8.812 23.2829 8.924 23.7389 8.924ZM32.0537 9.644C31.4537 9.644 30.9137 9.5 30.4337 9.212C29.9537 8.916 29.5737 8.516 29.2937 8.012C29.0137 7.5 28.8737 6.928 28.8737 6.296C28.8737 5.664 29.0097 5.1 29.2817 4.604C29.5537 4.1 29.9217 3.704 30.3857 3.416C30.8497 3.128 31.3697 2.984 31.9457 2.984C32.3857 2.984 32.7817 3.064 33.1337 3.224C33.4937 3.384 33.8017 3.608 34.0577 3.896C34.3217 4.176 34.5217 4.5 34.6577 4.868C34.8017 5.228 34.8737 5.608 34.8737 6.008C34.8737 6.088 34.8697 6.172 34.8617 6.26C34.8537 6.348 34.8417 6.44 34.8257 6.536H29.2937V5.876H34.4177L34.0937 6.128C34.1417 5.664 34.0737 5.248 33.8897 4.88C33.7057 4.504 33.4417 4.208 33.0977 3.992C32.7617 3.768 32.3777 3.656 31.9457 3.656C31.5137 3.656 31.1177 3.772 30.7577 4.004C30.3977 4.228 30.1137 4.54 29.9057 4.94C29.6977 5.332 29.6017 5.788 29.6177 6.308C29.6017 6.828 29.7017 7.288 29.9177 7.688C30.1337 8.088 30.4297 8.404 30.8057 8.636C31.1817 8.86 31.5977 8.972 32.0537 8.972C32.5177 8.972 32.9217 8.864 33.2657 8.648C33.6097 8.424 33.8897 8.128 34.1057 7.76L34.7177 8.084C34.5737 8.38 34.3697 8.648 34.1057 8.888C33.8417 9.12 33.5337 9.304 33.1817 9.44C32.8377 9.576 32.4617 9.644 32.0537 9.644ZM36.8308 9.5V3.128H37.5508V4.412L37.3708 4.364C37.5148 3.94 37.7708 3.604 38.1388 3.356C38.5148 3.108 38.9508 2.984 39.4468 2.984C39.8868 2.984 40.2868 3.084 40.6468 3.284C41.0068 3.484 41.2948 3.764 41.5108 4.124C41.7268 4.476 41.8348 4.88 41.8348 5.336V9.5H41.1148V5.54C41.1148 5.156 41.0388 4.828 40.8868 4.556C40.7348 4.276 40.5228 4.064 40.2508 3.92C39.9868 3.768 39.6828 3.692 39.3388 3.692C38.9788 3.692 38.6628 3.776 38.3908 3.944C38.1188 4.112 37.9108 4.344 37.7668 4.64C37.6228 4.936 37.5508 5.276 37.5508 5.66V9.5H36.8308ZM46.254 9.572C45.726 9.572 45.318 9.424 45.03 9.128C44.742 8.824 44.598 8.384 44.598 7.808V3.812H43.398V3.128H43.854C44.094 3.128 44.278 3.056 44.406 2.912C44.534 2.768 44.598 2.572 44.598 2.324V1.64H45.318V3.128H46.71V3.812H45.318V7.808C45.318 7.984 45.342 8.156 45.39 8.324C45.446 8.492 45.55 8.628 45.702 8.732C45.854 8.836 46.074 8.888 46.362 8.888C46.426 8.888 46.502 8.884 46.59 8.876C46.686 8.868 46.762 8.86 46.818 8.852V9.5C46.73 9.524 46.63 9.54 46.518 9.548C46.406 9.564 46.318 9.572 46.254 9.572ZM50.212 9.5L53.5 0.559999H54.304L57.592 9.5H56.752L55.936 7.22H51.868L51.04 9.5H50.212ZM52.12 6.5H55.672L53.752 1.16H54.04L52.12 6.5ZM59.1572 9.5V0.559999H59.9372V9.5H59.1572Z" fill="#9DA4A3"/>
</svg>
